<svg xmlns="http://www.w3.org/2000/svg" xmlns:xlink="http://www.w3.org/1999/xlink" viewBox="0,0,256,256" width="96px" height="96px" fill-rule="nonzero"><g fill="#ffffff" fill-rule="nonzero" stroke="none" stroke-width="1" stroke-linecap="butt" stroke-linejoin="miter" stroke-miterlimit="10" stroke-dasharray="" stroke-dashoffset="0" font-family="none" font-weight="none" font-size="none" text-anchor="none" style="mix-blend-mode: normal"><g transform="scale(8,8)"><path d="M15.50781,2.09375l-1.41406,1.41406l2.52344,2.52344c-0.20703,-0.01172 -0.40625,-0.03125 -0.61719,-0.03125c-2.39062,0 -4.58203,0.86719 -6.30469,2.28125l-5.98828,-5.98828l-1.41406,1.41406l26,26l1.41406,-1.41406l-5.98828,-5.98828c1.41797,-1.72266 2.28125,-3.91406 2.28125,-6.30469c0,-1.5 -0.30078,-2.89844 -0.90234,-4.09766l-1.5,1.5c0.30078,0.79688 0.40234,1.69922 0.40234,2.59766c0,1.83984 -0.64062,3.53516 -1.69922,4.89063l-11.19141,-11.19531c1.35547,-1.05469 3.05078,-1.69531 4.89063,-1.69531c0.1875,0 0.37109,0.01563 0.55859,0.03125l-2.46484,2.46094l1.41406,1.41406l4.90625,-4.90625zM7.16016,11.34766c-0.73828,1.39063 -1.16016,2.97656 -1.16016,4.65234c0,1.5 0.30078,2.89844 0.89844,4.09766l1.5,-1.5c-0.19922,-0.79687 -0.39844,-1.69922 -0.39844,-2.59766c0,-1.12109 0.23438,-2.1875 0.65625,-3.15625zM16.19922,20.38672l-4.61328,4.61328l4.90625,4.90625l1.41406,-1.41406l-2.52734,-2.52344c0.20703,0.01172 0.41406,0.03125 0.62109,0.03125c1.67578,0 3.26172,-0.42187 4.65234,-1.16016l-1.49609,-1.49609c-0.96875,0.42188 -2.03516,0.65625 -3.15625,0.65625c-0.1875,0 -0.37109,-0.01172 -0.55859,-0.02734l2.17188,-2.17187z"></path></g></g></svg>